<svg width="442" height="442" viewBox="0 0 442 442" fill="none" xmlns="http://www.w3.org/2000/svg">
<mask id="mask0_1_85" style="mask-type:alpha" maskUnits="userSpaceOnUse" x="0" y="0" width="442" height="442">
<rect width="442" height="442" fill="#FF9D01"/>
</mask>
<g mask="url(#mask0_1_85)">
<rect width="442" height="442" fill="#FF9D01"/>
<path d="M413.004 283.923L322.419 261.711L388.634 196.025C394.126 190.577 394.096 181.551 388.568 176.022L372.564 160.011C367.037 154.481 358.172 154.608 352.916 160.293L289.556 228.835L266.162 137.019C264.222 129.404 256.528 124.834 249.109 126.891L227.63 132.846C220.212 134.903 215.969 142.783 218.227 150.31L245.452 241.063L155.843 214.934C148.411 212.767 140.746 217.223 138.855 224.809L133.38 246.775C131.489 254.362 136.112 262.114 143.625 263.957L234.21 286.168L167.995 351.854C162.503 357.302 162.532 366.328 168.06 371.857L184.065 387.869C189.592 393.398 198.458 393.271 203.713 387.586L267.073 319.044L290.466 410.86C292.407 418.475 300.102 423.045 307.52 420.988L328.999 415.033C336.418 412.976 340.661 405.096 338.403 397.569L311.177 306.816L400.786 332.945C408.218 335.113 415.883 330.656 417.774 323.07L423.249 301.104C425.139 293.517 420.517 285.765 413.004 283.923Z" fill="white"/>
</g>
</svg>
