<svg width="55" height="61" viewBox="0 0 55 61" fill="none" xmlns="http://www.w3.org/2000/svg">
<path d="M53.4433 39.804L36.8081 30.5L53.4433 21.196C54.8231 20.4243 55.3104 18.6482 54.5233 17.2599L52.2446 13.24C51.4576 11.8516 49.7038 11.3934 48.3578 12.2245L32.1291 22.2457L32.5356 2.92061C32.5692 1.31781 31.3029 0 29.7287 0H25.1713C23.5973 0 22.3308 1.31781 22.3646 2.92061L22.7709 22.2457L6.54221 12.2247C5.19628 11.3935 3.44245 11.8518 2.65543 13.2401L0.376728 17.26C-0.41029 18.6484 0.0770339 20.4244 1.45677 21.1961L18.0919 30.5L1.45665 39.804C0.076917 40.5757 -0.410407 42.3518 0.376728 43.7401L2.65543 47.76C3.44245 49.1484 5.19628 49.6066 6.54221 48.7755L22.7709 38.7543L22.3644 58.0794C22.3308 59.6822 23.5973 61 25.1713 61H29.7288C31.3029 61 32.5694 59.6822 32.5357 58.0794L32.1291 38.7543L48.3578 48.7753C49.7037 49.6065 51.4576 49.1482 52.2446 47.7599L54.5233 43.74C55.3103 42.3516 54.8231 40.5757 53.4433 39.804Z" fill="white"/>
</svg>
