<svg width="47" height="61" viewBox="0 0 47 61" fill="none" xmlns="http://www.w3.org/2000/svg">
<path d="M46.65 17.1562C46.65 11.8902 42.3848 7.625 37.1187 7.625C31.8527 7.625 27.5875 11.8902 27.5875 17.1562C27.5875 21.493 30.4826 25.1506 34.4381 26.3063C34.3666 28.2244 33.9377 29.7018 33.1275 30.7025C31.2928 32.99 27.2539 33.3713 22.9768 33.7645C19.617 34.0742 16.1381 34.4078 13.2906 35.7779V18.6217C17.1627 17.4064 19.9625 13.7965 19.9625 9.53125C19.9625 4.26523 15.6973 0 10.4312 0C5.16523 0 0.899994 4.26523 0.899994 9.53125C0.899994 13.7965 3.6998 17.4064 7.57187 18.6217V42.3664C3.6998 43.5936 0.899994 47.2035 0.899994 51.4688C0.899994 56.7348 5.16523 61 10.4312 61C15.6973 61 19.9625 56.7348 19.9625 51.4688C19.9625 47.418 17.4367 43.951 13.8625 42.5809C14.2318 41.9613 14.7918 41.4133 15.6377 40.9844C17.5678 40.0074 20.451 39.7453 23.5129 39.4594C28.5406 38.9947 34.2355 38.4586 37.5953 34.2887C39.2633 32.2156 40.1092 29.5469 40.1687 26.199C43.9336 24.9123 46.65 21.35 46.65 17.1562ZM10.4312 7.625C11.4797 7.625 12.3375 8.48281 12.3375 9.53125C12.3375 10.5797 11.4797 11.4375 10.4312 11.4375C9.38281 11.4375 8.52499 10.5797 8.52499 9.53125C8.52499 8.48281 9.38281 7.625 10.4312 7.625ZM10.4312 53.375C9.38281 53.375 8.52499 52.5172 8.52499 51.4688C8.52499 50.4203 9.38281 49.5625 10.4312 49.5625C11.4797 49.5625 12.3375 50.4203 12.3375 51.4688C12.3375 52.5172 11.4797 53.375 10.4312 53.375ZM37.1187 15.25C38.1672 15.25 39.025 16.1078 39.025 17.1562C39.025 18.2047 38.1672 19.0625 37.1187 19.0625C36.0703 19.0625 35.2125 18.2047 35.2125 17.1562C35.2125 16.1078 36.0703 15.25 37.1187 15.25Z" fill="white"/>
</svg>
