<svg width="442" height="442" viewBox="0 0 442 442" fill="none" xmlns="http://www.w3.org/2000/svg">
<mask id="mask0_1_105" style="mask-type:alpha" maskUnits="userSpaceOnUse" x="0" y="0" width="442" height="442">
<rect width="442" height="442" fill="#FF9D01"/>
</mask>
<g mask="url(#mask0_1_105)">
<rect width="442" height="442" fill="#FF9D01"/>
<path d="M341.258 260.097C341.258 234.284 320.35 213.376 294.537 213.376C268.724 213.376 247.817 234.284 247.817 260.097C247.817 281.354 262.008 299.283 281.397 304.948C281.047 314.351 278.944 321.592 274.973 326.498C265.979 337.711 246.182 339.579 225.216 341.507C208.747 343.025 191.694 344.66 177.736 351.376V267.28C196.717 261.323 210.441 243.628 210.441 222.72C210.441 196.907 189.533 176 163.72 176C137.907 176 117 196.907 117 222.72C117 243.628 130.724 261.323 149.704 267.28V383.672C130.724 389.687 117 407.382 117 428.29C117 454.103 137.907 475.01 163.72 475.01C189.533 475.01 210.441 454.103 210.441 428.29C210.441 408.434 198.06 391.439 180.54 384.723C182.35 381.686 185.095 379 189.241 376.897C198.702 372.109 212.835 370.824 227.844 369.422C252.489 367.144 280.404 364.516 296.873 344.076C305.049 333.915 309.196 320.833 309.488 304.422C327.942 298.115 341.258 280.654 341.258 260.097ZM163.72 213.376C168.86 213.376 173.064 217.581 173.064 222.72C173.064 227.86 168.86 232.064 163.72 232.064C158.581 232.064 154.376 227.86 154.376 222.72C154.376 217.581 158.581 213.376 163.72 213.376ZM163.72 437.634C158.581 437.634 154.376 433.429 154.376 428.29C154.376 423.15 158.581 418.946 163.72 418.946C168.86 418.946 173.064 423.15 173.064 428.29C173.064 433.429 168.86 437.634 163.72 437.634ZM294.537 250.753C299.676 250.753 303.881 254.957 303.881 260.097C303.881 265.236 299.676 269.441 294.537 269.441C289.398 269.441 285.193 265.236 285.193 260.097C285.193 254.957 289.398 250.753 294.537 250.753Z" fill="white"/>
</g>
</svg>
