<svg width="442" height="442" viewBox="0 0 442 442" fill="none" xmlns="http://www.w3.org/2000/svg">
<mask id="mask0_1_126" style="mask-type:alpha" maskUnits="userSpaceOnUse" x="0" y="0" width="442" height="442">
<rect width="442" height="442" fill="#FF9D01"/>
</mask>
<g mask="url(#mask0_1_126)">
<rect width="442" height="442" fill="#FF9D01"/>
<path d="M317.561 140H271.425C265.176 140 262.081 147.534 266.461 151.972L276.331 161.842L247.89 190.283C234.925 182.107 219.565 177.376 203.097 177.376C156.668 177.376 119 215.045 119 261.473C119 307.901 156.668 345.569 203.097 345.569C249.525 345.569 287.193 307.901 287.193 261.473C287.193 245.004 282.463 229.645 274.287 216.68L302.728 188.239L312.597 198.108C313.999 199.51 315.809 200.152 317.503 200.152C321.124 200.152 324.569 197.349 324.569 193.144V147.008C324.569 143.154 321.416 140 317.561 140ZM203.097 308.193C177.342 308.193 156.376 287.227 156.376 261.473C156.376 235.718 177.342 214.753 203.097 214.753C228.851 214.753 249.817 235.718 249.817 261.473C249.817 287.227 228.851 308.193 203.097 308.193ZM411.002 233.382H364.866C358.617 233.382 355.522 240.916 359.902 245.354L369.771 255.224L341.33 283.665C330.701 277.007 318.554 272.627 305.414 271.226C304.188 283.957 300.625 296.513 294.668 308.193C295.311 308.193 295.953 308.135 296.537 308.135C322.292 308.135 343.258 329.1 343.258 354.855C343.258 380.61 322.292 401.575 296.537 401.575C270.783 401.575 249.817 380.61 249.817 354.855C249.817 354.213 249.817 353.57 249.875 352.986C238.195 358.943 225.639 362.564 212.908 363.732C217.346 406.072 253.087 439.01 296.537 439.01C342.966 439.01 380.634 401.342 380.634 354.913C380.634 338.445 375.903 323.085 367.727 310.12L396.168 281.679L406.038 291.549C407.44 292.951 409.192 293.593 410.944 293.593C414.564 293.593 418.01 290.79 418.01 286.585V240.449C418.01 236.536 414.856 233.382 411.002 233.382Z" fill="white"/>
</g>
</svg>
