<svg width="62" height="61" viewBox="0 0 62 61" fill="none" xmlns="http://www.w3.org/2000/svg">
<path d="M41.4078 0H31.9957C30.7209 0 30.0894 1.53691 30.983 2.44238L32.9965 4.45586L27.1943 10.258C24.5494 8.59004 21.416 7.625 18.0562 7.625C8.58456 7.625 0.899994 15.3096 0.899994 24.7812C0.899994 34.2529 8.58456 41.9375 18.0562 41.9375C27.5279 41.9375 35.2125 34.2529 35.2125 24.7812C35.2125 21.4215 34.2475 18.2881 32.5795 15.6432L38.3816 9.84102L40.3951 11.8545C40.681 12.1404 41.0504 12.2715 41.3959 12.2715C42.1346 12.2715 42.8375 11.6996 42.8375 10.8418V1.42969C42.8375 0.643359 42.1941 0 41.4078 0ZM18.0562 34.3125C12.8021 34.3125 8.52499 30.0354 8.52499 24.7812C8.52499 19.5271 12.8021 15.25 18.0562 15.25C23.3103 15.25 27.5875 19.5271 27.5875 24.7812C27.5875 30.0354 23.3103 34.3125 18.0562 34.3125ZM60.4703 19.0506H51.0582C49.7834 19.0506 49.1519 20.5875 50.0455 21.493L52.059 23.5064L46.2568 29.3086C44.0885 27.9504 41.6103 27.0568 38.9297 26.7709C38.6795 29.3682 37.9527 31.9297 36.7375 34.3125C36.8685 34.3125 36.9996 34.3006 37.1187 34.3006C42.3728 34.3006 46.65 38.5777 46.65 43.8318C46.65 49.0859 42.3728 53.3631 37.1187 53.3631C31.8646 53.3631 27.5875 49.0859 27.5875 43.8318C27.5875 43.7008 27.5875 43.5697 27.5994 43.4506C25.2166 44.6658 22.6551 45.4045 20.0578 45.6428C20.9633 54.2805 28.2547 61 37.1187 61C46.5904 61 54.275 53.3154 54.275 43.8438C54.275 40.484 53.31 37.3506 51.642 34.7057L57.4441 28.9035L59.4576 30.917C59.7435 31.2029 60.101 31.334 60.4584 31.334C61.1971 31.334 61.9 30.7621 61.9 29.9043V20.4922C61.9 19.6939 61.2566 19.0506 60.4703 19.0506Z" fill="white"/>
</svg>
